<svg width="278" height="151" viewBox="0 0 278 151" fill="none" xmlns="http://www.w3.org/2000/svg">
<path d="M127.189 33.2496C124.545 33.6868 122.067 34.3322 120.006 35.1234C108.305 39.5997 99.9564 49.4474 97.4789 61.7103C97.0625 63.7298 97 64.6875 97 68.5392C97.0208 73.5567 97.2915 75.4097 98.6864 79.5736C101.955 89.4006 109.429 97.3537 119.069 101.31C122.983 102.892 126.564 103.662 131.04 103.87C139.306 104.224 147.426 101.726 153.38 96.979L154.171 96.3544L164.414 106.577C173.7 115.842 174.741 116.841 175.595 117.049C178.197 117.736 180.862 115.904 181.154 113.218C181.383 111.303 181.508 111.449 170.535 100.456L160.334 90.2334L161.583 88.2763C162.27 87.2145 163.269 85.5489 163.79 84.5704C168.641 75.4513 169.182 64.6875 165.268 55.1104C160.709 44.0135 151.048 35.9978 139.16 33.5203C136.495 32.979 129.874 32.8124 127.189 33.2496ZM137.141 42.2021C140.451 42.7851 144.094 44.2633 147.176 46.2828C149.278 47.6569 152.922 51.3004 154.296 53.3407C156.565 56.7343 157.981 60.2737 158.627 64.1462C159.105 66.9569 158.96 71.8079 158.356 74.2646C155.941 83.8209 149.32 90.9621 140.243 93.8144C137.661 94.6264 135.246 94.9803 132.394 94.9803C125.086 94.9803 118.715 92.3154 113.552 87.0896C110.366 83.8833 108.388 80.7187 107.118 76.7838C105.557 71.912 105.307 67.9978 106.286 63.0844C108.784 50.4676 120.526 41.2236 133.289 41.8066C134.476 41.869 136.204 42.0356 137.141 42.2021Z" fill="#006FFF"/>
<path d="M122.022 60.2176C121.463 61.3071 121.492 63.0148 122.081 64.0453C122.302 64.4428 123.288 65.5764 124.275 66.5627L126.085 68.3735L124.289 70.1696C122.14 72.319 121.684 73.0698 121.61 74.5272C121.507 76.4558 122.891 78.3107 124.908 78.9732C126.748 79.5768 127.764 79.1499 130.37 76.6913L132.445 74.7333L134.241 76.5294C135.213 77.501 136.347 78.4874 136.715 78.7082C138.319 79.6063 140.233 79.2235 141.779 77.7071C142.986 76.5 143.384 75.2192 143.016 73.6734C142.751 72.584 142.677 72.4515 140.778 70.464L138.805 68.3735L140.778 66.283C142.677 64.2956 142.751 64.1631 143.016 63.0737C143.384 61.5279 142.986 60.2471 141.779 59.0399C140.233 57.5235 138.319 57.1408 136.715 58.0388C136.347 58.2596 135.213 59.246 134.241 60.2176L132.445 62.0137L130.355 60.041C128.176 57.9799 127.263 57.4794 125.982 57.553C124.407 57.656 122.773 58.7602 122.022 60.2176Z" fill="#006FFF"/>
</svg>
