<svg width="" height="" viewBox="0 0 32 18" fill="none" xmlns="http://www.w3.org/2000/svg">
<path d="M8.91797 3.74H2.79797V6.24H8.41797V8.54H2.79797V11.24H9.31797V13.56H0.0179688V1.44H8.91797V3.74ZM13.038 6.04H15.358V8.62H13.038V17.26H10.478V0.639999H13.038V6.04ZM25.4009 3.76H19.1009V7.46H25.4009V9.56H16.5609V1.42H25.4009V3.76ZM31.9809 3.82V6.18H29.7209V9.68H27.3409V0.4H29.7209V3.82H31.9809ZM17.7609 11.32H29.8009V13.6C29.7743 14.0933 29.7209 14.56 29.6409 15C29.5609 15.44 29.4676 15.8267 29.3609 16.16C29.2409 16.5467 29.1143 16.9067 28.9809 17.24H26.5209C26.7476 16.8 26.9209 16.36 27.0409 15.92C27.1609 15.4933 27.2476 15.1067 27.3009 14.76C27.3543 14.36 27.3809 13.9733 27.3809 13.6H17.7609V11.32Z" fill="var(--common-text-color-1)"/>
</svg>
<svg width="" height="" viewBox="0 0 32 18" fill="none" xmlns="http://www.w3.org/2000/svg">
<path d="M8.91797 3.74H2.79797V6.24H8.41797V8.54H2.79797V11.24H9.31797V13.56H0.0179688V1.44H8.91797V3.74ZM13.038 6.04H15.358V8.62H13.038V17.26H10.478V0.639999H13.038V6.04ZM25.4009 3.76H19.1009V7.46H25.4009V9.56H16.5609V1.42H25.4009V3.76ZM31.9809 3.82V6.18H29.7209V9.68H27.3409V0.4H29.7209V3.82H31.9809ZM17.7609 11.32H29.8009V13.6C29.7743 14.0933 29.7209 14.56 29.6409 15C29.5609 15.44 29.4676 15.8267 29.3609 16.16C29.2409 16.5467 29.1143 16.9067 28.9809 17.24H26.5209C26.7476 16.8 26.9209 16.36 27.0409 15.92C27.1609 15.4933 27.2476 15.1067 27.3009 14.76C27.3543 14.36 27.3809 13.9733 27.3809 13.6H17.7609V11.32Z" fill="var(--common-text-color-1)"/>
</svg>

