<svg width="685" height="372" viewBox="0 0 685 372" fill="none" xmlns="http://www.w3.org/2000/svg">
<rect width="685" height="372" fill="#EEF1F4"/>
<path d="M337.059 87.3329C335.772 87.6447 299.131 106.862 299.131 107.213C299.17 107.447 390.89 155.938 391.825 156.21C392.215 156.288 401.882 151.728 414.902 145.296L437.315 134.265L434.781 132.861C429.051 129.743 346.375 88.0345 344.816 87.5278C343.062 86.9041 339.164 86.8261 337.059 87.3329Z" fill="#006FFF"/>
<path d="M267.635 123.74C257.462 129.158 249.159 133.758 249.159 133.953C249.159 134.226 284.825 152.975 332.927 177.961L340.762 182.054L359.979 172.465L379.157 162.915L332.81 138.397C307.317 124.91 286.385 113.878 286.268 113.878C286.151 113.878 277.77 118.322 267.635 123.74Z" fill="#006FFF"/>
<path d="M243.078 187.823L243.195 231.364L244.208 233.546C245.534 236.353 247.639 238.653 250.172 240.095C251.264 240.719 269.428 250.386 290.556 261.573C311.683 272.76 330.237 282.622 331.796 283.48L334.603 285V238.497V191.994L294.57 171.14C272.547 159.679 251.926 148.921 248.769 147.284L243 144.282L243.078 187.823Z" fill="#006FFF"/>
<path d="M419.501 156.093L396.581 167.397V180.65C396.581 192.929 396.503 194.059 395.801 195.58C393.93 199.712 388.083 199.945 385.667 196.008C384.926 194.8 384.887 194.021 384.887 184.081C384.887 178.273 384.77 173.478 384.614 173.478C384.419 173.478 375.766 177.727 365.319 182.911L346.297 192.344V238.692C346.297 282.622 346.336 285.039 346.96 284.766C349.649 283.752 436.458 239.393 437.666 238.458C438.484 237.795 439.693 236.431 440.317 235.456C442.694 231.753 442.577 233.78 442.499 187.277L442.382 144.789L419.501 156.093Z" fill="#006FFF"/>
</svg>
