<svg width="581" height="681" viewBox="0 0 581 681" fill="none" xmlns="http://www.w3.org/2000/svg">
<path d="M278.867 2.86681C272.333 5.80015 267.133 12.2001 265.133 19.6668C263.133 27.1335 263.133 289.533 265.133 297C268.333 308.6 278.333 316.333 290.333 316.333C302.333 316.333 312.333 308.6 315.533 297C317.533 289.533 317.533 27.1335 315.533 19.6668C312.333 8.06681 302.333 0.33348 290.333 0.33348C287 0.33348 281.8 1.53348 278.867 2.86681Z" fill="var(--invert-color)"/>
<path d="M407 130.867C394.067 134.067 384.733 147.8 387 160.2C388.867 170.333 393.133 175.133 409.267 184.733C431.4 197.933 441 205.533 459 223.533C478.6 243.267 490.2 259.267 502.333 283.667C519.533 318.067 526.333 345.133 527.267 383.667C528.467 427.667 521 461 501.533 499C489.267 522.733 477.8 538.333 457.667 558.333C413 603 360.467 625.8 297.667 627.933C229.133 630.2 167.267 604.867 118.867 554.733C86.8666 521.667 67.2666 484.067 56.7333 436.2C54.0666 423.933 53.7999 418.6 53.7999 390.333C53.7999 354.2 55.2666 344.067 64.9999 314.867C82.3333 262.467 120.333 214.867 166.333 187.667C182.333 178.2 184.733 176.467 188.467 171.533C193.667 164.733 194.467 153.533 190.333 144.867C185.933 135.933 177.8 131 167 131C159.667 131 157.8 131.667 147 137.8C77.1333 177.8 27.7999 242.867 8.33325 320.2C2.06659 345.4 0.333252 360.467 0.333252 390.333C0.333252 428.2 4.19992 451.933 15.9333 486.333C21.3999 502.467 37.7999 535.667 47.2666 549.933C94.8666 621 167 666.6 251 678.467C272.6 681.4 308.6 681.533 329.667 678.467C426.467 664.467 508.333 605.4 551 518.333C604.733 409 584.6 278.467 500.333 189.933C486.067 174.867 466.333 158.333 449.667 147.533C426.467 132.467 416.467 128.6 407 130.867Z" fill="var(--invert-color)"/>
</svg>
