<svg width="" height="" viewBox="0 0 682 682" fill="none" xmlns="http://www.w3.org/2000/svg">
<path d="M308.479 0.854647C201.812 11.9213 108.346 69.9213 51.5457 160.321C-13.3877 263.521 -17.2543 397.255 41.5457 504.055C68.2123 552.588 106.479 594.188 153.679 625.788C185.412 646.988 233.679 667.255 270.479 674.588C299.012 680.321 309.812 681.388 341.146 681.388C372.612 681.388 385.546 680.055 412.079 674.588C529.279 650.188 627.546 562.188 665.012 448.055C677.412 410.455 681.812 382.321 681.812 340.721C681.812 300.588 677.546 272.321 666.346 237.388C649.812 185.388 622.346 140.321 583.412 100.855C530.212 46.988 464.346 13.788 388.479 2.58798C372.079 0.18798 324.746 -0.878687 308.479 0.854647ZM380.879 54.8546C455.679 64.588 527.412 107.121 572.746 168.321C610.346 219.255 629.546 277.655 629.412 341.388C629.279 413.655 604.212 478.988 555.279 534.588C519.412 575.255 461.679 609.121 406.479 621.921C374.612 629.388 333.146 631.255 301.812 626.721C172.746 608.188 73.8123 509.255 55.1457 380.055C52.079 359.121 52.079 322.855 55.0123 301.655C72.6123 176.188 168.212 77.5213 293.146 56.0546C320.212 51.388 350.746 50.988 380.879 54.8546Z" fill=""/>
<path d="M383.146 198.588C379.012 200.321 246.346 319.121 241.279 325.521C235.012 333.388 234.612 345.921 240.346 354.321C245.279 361.788 379.412 481.788 384.746 483.521C392.479 486.055 403.012 484.455 408.879 479.921C415.146 474.855 419.812 465.788 419.812 458.721C419.679 447.255 418.212 445.521 358.612 391.921C327.812 364.188 302.479 341.121 302.479 340.721C302.479 340.321 327.812 317.255 358.612 289.521C418.212 235.921 419.812 234.188 419.812 222.721C419.812 212.855 412.212 201.521 403.412 198.188C398.346 196.188 388.079 196.455 383.146 198.588Z" fill=""/>
</svg>
