<svg width="278" height="151" viewBox="0 0 278 151" fill="none" xmlns="http://www.w3.org/2000/svg">
<path d="M108.673 23.7462C95.8265 28.4832 84.9927 32.5688 84.6079 32.8648C83.3943 33.8122 63.8581 60.8423 63.6509 61.8785C63.3845 63.2108 64.0949 64.8983 65.1901 65.6384C65.6933 65.9937 69.7486 67.1779 74.7214 68.451L83.3647 70.6714V91.9876C83.3647 111.705 83.3943 113.393 83.8975 114.34C84.1639 114.902 84.8151 115.583 85.2887 115.85C86.7392 116.708 148.19 135.36 149.492 135.36C150.469 135.36 154.258 133.347 173.172 122.896C185.575 116.028 196.024 110.136 196.379 109.781C196.764 109.425 197.237 108.893 197.415 108.567C197.681 108.152 197.8 101.965 197.918 86.3921L198.066 64.8391L205.762 61.168C210.084 59.0956 213.754 57.1712 214.11 56.7567C214.909 55.8389 215.234 54.2402 214.85 53.1448C214.435 51.931 195.284 24.664 194.514 24.1607C194.159 23.9239 192.797 23.5982 191.524 23.4502C190.222 23.3021 176.902 21.3778 161.865 19.1869C146.857 16.9665 133.981 15.1605 133.301 15.1605C132.413 15.1901 125.16 17.7066 108.673 23.7462ZM156.33 26.1147C168.525 27.891 178.5 29.4009 178.559 29.4305C178.589 29.4898 171.929 32.628 163.789 36.4175L148.93 43.3453L125.989 39.1116C113.379 36.8024 102.723 34.8188 102.339 34.73C101.835 34.582 105.772 33.0128 117.435 28.72C126.137 25.5226 133.449 22.8877 133.715 22.8877C133.981 22.8581 144.164 24.3087 156.33 26.1147ZM198.214 42.2795C202.033 47.7565 205.2 52.375 205.229 52.5823C205.289 52.8783 165.417 72.1813 165.21 71.9445C164.973 71.678 154.702 49.5625 154.702 49.3256C154.702 49.0592 190.4 32.3615 190.962 32.3615C191.14 32.3615 194.396 36.832 198.214 42.2795ZM115.925 45.0624C130.163 47.6677 142.062 49.9178 142.358 50.0362C142.773 50.2138 141.648 52.079 134.988 62.0857C130.636 68.599 127.084 73.9577 127.055 73.9873C126.996 74.0465 74.0998 60.4278 73.9518 60.3094C73.8926 60.2502 77.1782 55.6909 81.2039 50.125C87.9232 40.9176 88.604 40.059 89.2848 40.1774C89.6992 40.2663 101.687 42.4571 115.925 45.0624ZM145.466 126.36C145.377 126.449 91.2976 109.958 91.1496 109.781C91.0904 109.751 91.0904 101.373 91.12 91.2179L91.2088 72.7142L109.265 77.3919C119.211 79.9676 127.884 82.0993 128.594 82.1289C129.423 82.1585 130.133 81.9808 130.666 81.596C131.11 81.2703 134.603 76.3261 138.421 70.6122L145.377 60.2502L145.466 93.2607C145.496 111.409 145.496 126.301 145.466 126.36ZM156.122 70.6714C157.573 73.78 159.142 77.0663 159.586 78.0433C160.681 80.2637 161.717 80.9742 163.73 80.7966C164.884 80.6782 167.815 79.4051 177.583 74.6978C184.361 71.4412 190.015 68.747 190.074 68.747C190.163 68.747 190.192 76.8294 190.163 86.7178L190.074 104.718L172.018 114.725C162.102 120.232 153.784 124.82 153.606 124.909C153.31 125.028 153.222 118.929 153.222 94.9186C153.222 78.3689 153.281 64.8687 153.34 64.9279C153.429 64.9871 154.672 67.5924 156.122 70.6714Z" fill="#006FFF"/>
</svg>
