<svg width="" height="" viewBox="0 0 72 18" fill="none" xmlns="http://www.w3.org/2000/svg">
<path d="M9.79688 3.74H3.67688V6.24H9.29688V8.54H3.67688V11.24H10.1969V13.56H0.896875V1.44H9.79688V3.74ZM13.9169 6.04H16.2369V8.62H13.9169V17.26H11.3569V0.639999H13.9169V6.04ZM26.2798 3.76H19.9798V7.46H26.2798V9.56H17.4398V1.42H26.2798V3.76ZM32.8598 3.82V6.18H30.5998V9.68H28.2198V0.4H30.5998V3.82H32.8598ZM18.6398 11.32H30.6798V13.6C30.6532 14.0933 30.5998 14.56 30.5198 15C30.4398 15.44 30.3465 15.8267 30.2398 16.16C30.1198 16.5467 29.9932 16.9067 29.8598 17.24H27.3998C27.6265 16.8 27.7998 16.36 27.9198 15.92C28.0398 15.4933 28.1265 15.1067 28.1798 14.76C28.2332 14.36 28.2598 13.9733 28.2598 13.6H18.6398V11.32ZM48.0391 3.74H41.9191V6.24H47.5391V8.54H41.9191V11.24H48.4391V13.56H39.1391V1.44H48.0391V3.74ZM52.1591 6.04H54.4791V8.62H52.1591V17.26H49.5991V0.639999H52.1591V6.04ZM64.522 3.76H58.222V7.46H64.522V9.56H55.682V1.42H64.522V3.76ZM71.102 3.82V6.18H68.842V9.68H66.462V0.4H68.842V3.82H71.102ZM56.882 11.32H68.922V13.6C68.8954 14.0933 68.842 14.56 68.762 15C68.682 15.44 68.5887 15.8267 68.482 16.16C68.362 16.5467 68.2354 16.9067 68.102 17.24H65.642C65.8687 16.8 66.042 16.36 66.162 15.92C66.282 15.4933 66.3687 15.1067 66.422 14.76C66.4754 14.36 66.502 13.9733 66.502 13.6H56.882V11.32Z" fill=""/>
</svg>
