<svg width="278" height="151" viewBox="0 0 278 151" fill="none" xmlns="http://www.w3.org/2000/svg">
<path d="M80.9399 40.149C79.7718 40.4473 77.6344 41.6899 76.9634 42.4852C76.6155 42.9078 76.0438 43.8025 75.671 44.4984L75 45.7659V74.7199V103.674L75.5965 104.792C76.5906 106.681 77.5102 107.65 79.1505 108.545L80.7162 109.39H138.5H196.284L197.576 108.719C199.216 107.849 200.459 106.607 201.329 104.966L202 103.674V74.7199V45.7659L201.329 44.4735C200.459 42.8332 199.216 41.5905 197.576 40.7207L196.284 40.0496L138.997 39.9999C107.483 39.9999 81.3624 40.0496 80.9399 40.149ZM141.781 54.3651C145.061 55.4586 147.348 57.6457 149.187 61.4234C153.163 69.5504 152.691 82.8966 148.193 89.8555C146.751 92.0674 145.111 93.5586 142.974 94.5776C141.333 95.3729 140.836 95.4723 138.699 95.5469C134.2 95.7457 131.218 94.4036 128.633 90.9987C124.657 85.8044 123.091 76.0868 124.831 67.5124C126.272 60.4293 129.578 55.8314 134.275 54.3154C136.263 53.6692 139.817 53.6941 141.781 54.3651ZM112.354 66.6923L112.404 78.9201L115.461 78.9946L118.493 79.0692V82.4244V85.7796L115.461 85.8541L112.404 85.9287V90.3526C112.404 94.18 112.354 94.8261 112.006 94.9504C111.261 95.2487 105.321 95.1244 104.998 94.8013C104.799 94.6025 104.7 93.2107 104.7 90.2034V85.9038L96.8211 85.8541L88.9178 85.7796L88.8432 82.6729L88.7687 79.5663L95.6282 67.5124C99.4059 60.8766 102.662 55.2101 102.86 54.887C103.233 54.3402 103.283 54.3402 107.757 54.3899L112.28 54.4645L112.354 66.6923ZM181.943 66.6923L181.993 78.9201L185.05 78.9946L188.082 79.0692V82.4244V85.7796L185.05 85.8541L181.993 85.9287V90.3774C181.993 95.6463 182.441 95.1492 177.768 95.0498L174.661 94.9753L174.587 90.452L174.537 85.9038L166.51 85.8541L158.507 85.7796L158.432 82.7226L158.358 79.6657L164.77 68.432C168.274 62.2436 171.53 56.5522 171.977 55.7569L172.822 54.3402L177.346 54.3899L181.869 54.4645L181.943 66.6923Z" fill="#006FFF"/>
<path d="M136.089 61.0258C133.231 62.3431 131.939 66.6178 131.939 74.72C131.964 81.1072 132.635 84.5867 134.3 86.898C136.189 89.4828 139.842 89.4828 141.706 86.8732C143.471 84.4624 144.415 78.8704 144.142 72.682C143.819 65.9468 142.452 62.1939 139.892 61.0258C138.599 60.4294 137.406 60.4294 136.089 61.0258Z" fill="#006FFF"/>
<path d="M100.475 71.29C98.2129 75.2665 96.3489 78.6217 96.2992 78.746C96.2495 78.8454 98.1135 78.9448 100.45 78.9448H104.7V71.4889C104.7 67.3881 104.675 64.0329 104.65 64.0329C104.6 64.0329 102.736 67.2887 100.475 71.29Z" fill="#006FFF"/>
<path d="M170.933 69.7988C169.169 72.98 167.28 76.3352 166.758 77.2548L165.814 78.9448H170.188H174.537V71.4889C174.537 67.3881 174.463 64.0329 174.363 64.0329C174.239 64.0329 172.723 66.6425 170.933 69.7988Z" fill="#006FFF"/>
</svg>
